<?xml version="1.0" encoding="UTF-8" standalone="no"?>
<svg width="600px" height="413px" viewBox="0 0 600 413" version="1.1" xmlns="http://www.w3.org/2000/svg" xmlns:xlink="http://www.w3.org/1999/xlink">
    <!-- Generator: Sketch 3.6.1 (26313) - http://www.bohemiancoding.com/sketch -->
    <title>义工登录</title>
    <desc>Created with Sketch.</desc>
    <defs></defs>
    <g id="Welcome" stroke="none" stroke-width="1" fill="none" fill-rule="evenodd">
        <g id="义工登录" transform="translate(-660.000000, -241.000000)" stroke="#16D0D8" stroke-width="2" fill="#FFFFFF">
            <g id="义工注册" transform="translate(660.000000, 241.000000)">
                <path d="M0,8.99805957 C0,4.02856849 4.03929056,0 8.99105576,0 L252.213972,0 C255.461977,0 265.616211,1.90124064 268.747406,5.80332241 C271.878601,9.70540418 292.478394,56.8804714 300,62.1676025 C307.521606,67.4547337 311.10521,68.480386 316.705139,68.8674469 C325.750519,69.4926535 591.000167,68.8871384 591.000167,68.8871384 C595.970637,68.8762631 600,72.8962981 600,77.8732702 L600,403.994177 C600,408.967956 595.969752,413 590.99368,413 L9.00632043,413 C4.03226701,413 0,408.978875 0,404.00194 L0,8.99805957 Z" id="义工登录"></path>
            </g>
        </g>
    </g>
</svg>