<?xml version="1.0" encoding="UTF-8" standalone="no"?>
<svg width="600px" height="413px" viewBox="0 0 600 413" version="1.1" xmlns="http://www.w3.org/2000/svg" xmlns:xlink="http://www.w3.org/1999/xlink">
    <!-- Generator: Sketch 3.6.1 (26313) - http://www.bohemiancoding.com/sketch -->
    <title>商家登录</title>
    <desc>Created with Sketch.</desc>
    <defs></defs>
    <g id="Welcome" stroke="none" stroke-width="1" fill="none" fill-rule="evenodd">
        <g id="商家登录" transform="translate(-660.000000, -241.000000)" stroke-width="2" stroke="#16D0D8" fill="#FFFFFF">
            <path d="M660,249.99806 C660,245.028568 664.039291,241 668.991056,241 L912.213972,241 C915.461977,241 925.616211,242.901241 928.747406,246.803322 C931.878601,250.705404 952.478394,298.354737 960,303.641869 C967.521606,308.929 970.317185,310.081979 975.917114,310.46904 C984.962494,311.094247 1251.01336,310.488648 1251.01336,310.488648 C1255.97654,310.477819 1260,314.505899 1260,319.45912 L1260,645.00992 C1260,649.975004 1255.96975,654 1250.99368,654 L669.00632,654 C664.032267,654 660,649.978875 660,645.00194 L660,249.99806 Z" transform="translate(960.000000, 447.500000) scale(-1, 1) translate(-960.000000, -447.500000) "></path>
        </g>
    </g>
</svg>